<?xml version="1.0" encoding="UTF-8"?>
<!-- Generator: Adobe Illustrator 18.1.1, SVG Export Plug-In . SVG Version: 6.00 Build 0)  -->
<svg version="1.1" id="Layer_1" xmlns="http://www.w3.org/2000/svg" xmlns:xlink="http://www.w3.org/1999/xlink" x="0px" y="0px" viewBox="0 0 400 230" enable-background="new 0 0 400 230" xml:space="preserve">
<g>
	<path fill="#C0BFBF" stroke="#999999" stroke-miterlimit="10" d="M353,138.9l41.9-62.2H350l-10.7,19.5c-3.1,5.8-5.9,11.5-8.7,17.5   c-3-6.7-6.1-13.2-9.8-19.5l-10-17.5h-10.1h-37.1H256l-10.7,19.5c-3.1,5.8-5.9,11.5-8.7,17.5c-3-6.7-6.1-13.2-9.8-19.5l-10-17.5   h-10.1h-37.1H162l-10.7,19.5c-3.1,5.8-5.9,11.5-8.7,17.5c-3-6.7-6.1-13.2-9.8-19.5l-10-17.5h-5.6H75.6H3.5v34.1h36.7v98.4h31h9.2   h37.5l12.5-21c3.9-6.3,7.2-12.8,10.5-19.5c2.8,6.5,5.9,12.8,9.6,19l12.7,21.6h2h46.7h0.1l0,0l12.5-21c3.9-6.3,7.2-12.8,10.5-19.5   c2.8,6.5,5.9,12.8,9.6,19l12.7,21.6h2h46.7h0.1l0,0l12.5-21c3.9-6.3,7.2-12.8,10.5-19.5c2.8,6.5,5.9,12.8,9.6,19l12.7,21.6H400   L353,138.9z M80.4,195.7v-84.9h19l19.6,28.1L80.4,195.7z"/>
	<g>
		<path fill="#FFFFFF" d="M198.2,119.1"/>
	</g>
	<g>
		<path fill="#FFFFFF" d="M296.5,119.1"/>
	</g>
	<path fill="#AD1225" d="M267.5,115.8c-8.6,4.6-14.3,12.9-14.3,24c0,17.5,14.2,31.7,31.7,31.7c17.5,0,31.7-14.2,31.7-31.7   c0-16.1-11.9-25.7-27.3-27.9l0,0c-1.4-0.2-2.9-0.3-4.4-0.3c-4.4,0-8.6,0.7-12.4,1.9L267.5,115.8z"/>
	<path fill="#AD1225" d="M183.3,111.8c-16.3,1.1-29.1,11.4-29.1,28.1c0,17.5,14.2,31.7,31.7,31.7c17.5,0,31.8-14.2,31.8-31.7   c0-16.1-11.9-25.7-27.3-27.9c-0.6-0.1-1.8,0.4-1.7-0.2L183.3,111.8z"/>
	<path fill="#FFFFFF" d="M253,0"/>
	<g>
		<path fill="#AD1225" d="M181.7,124c0,0,0-0.2-0.1-0.7c-0.1-0.5-0.1-1.1-0.2-1.9c-0.1-1.7-0.2-4.1-0.2-7.2    c0.1-3.1,0.4-6.8,1.2-11.1c0.8-4.2,2-8.9,3.9-13.9c1.8-5,4.4-10.1,7.7-15.2c0.4-0.6,0.8-1.3,1.3-1.9l0.6-1    c0.2-0.3,0.5-0.6,0.7-0.9c1-1.2,1.9-2.5,2.9-3.7c1-1.2,2.1-2.4,3.2-3.6c0.5-0.6,1.1-1.2,1.6-1.8c0.6-0.6,1.2-1.1,1.8-1.7    c4.7-4.7,10.1-8.7,15.8-12.6c1.5-0.9,2.9-1.8,4.4-2.7c0.7-0.4,1.5-0.9,2.2-1.3l2.3-1.2c1.5-0.8,3.1-1.6,4.6-2.4    c1.6-0.8,3.2-1.4,4.8-2.1l4.8-2.1c1.6-0.6,3.3-1.2,4.9-1.8c1.6-0.6,3.2-1.2,4.9-1.8c1.6-0.5,3.3-1,4.9-1.5c1.6-0.5,3.3-1,4.9-1.5    c1.6-0.4,3.3-0.8,4.9-1.2c1.6-0.4,3.2-0.8,4.8-1.3c0.8-0.2,1.6-0.5,2.4-0.6c0.8-0.2,1.6-0.4,2.4-0.5c3.2-0.7,6.3-1.4,9.4-2.1    c3.1-0.5,6.1-1,9.1-1.4c1.5-0.2,2.9-0.4,4.4-0.6c1.4-0.1,2.9-0.3,4.3-0.4c2.8-0.2,5.5-0.5,8.1-0.7c5.2-0.4,9.9-0.4,14.2-0.6    c4.2-0.2,7.9-0.1,10.9,0c6,0.1,9.5,0.2,9.5,0.2l0,4c0,0-3.4,0.2-9.4,0.5c-3,0.2-6.6,0.2-10.8,0.6c-2.1,0.2-4.3,0.3-6.6,0.5    c-2.3,0.2-4.8,0.2-7.3,0.6c-2.5,0.3-5.2,0.5-7.9,0.8c-1.4,0.1-2.8,0.3-4.2,0.4c-1.4,0.2-2.8,0.4-4.3,0.6c-2.9,0.4-5.9,0.8-8.9,1.1    c-3,0.5-6.1,0.9-9.3,1.4c-3.2,0.4-6.3,1.2-9.5,1.9c-1.6,0.4-3.2,0.7-4.8,1.1c-1.6,0.5-3.2,0.9-4.8,1.4c-1.6,0.5-3.2,0.9-4.8,1.4    c-1.6,0.5-3.2,1.1-4.8,1.7c-1.6,0.6-3.2,1.1-4.8,1.7l-4.7,2c-1.5,0.7-3.1,1.3-4.6,2c-1.5,0.8-3,1.5-4.5,2.3l-2.3,1.1    c-0.7,0.4-1.4,0.9-2.2,1.3c-1.4,0.9-2.9,1.7-4.3,2.6c-5.5,3.7-10.9,7.5-15.3,12c-0.6,0.5-1.1,1.1-1.7,1.6    c-0.5,0.6-1.1,1.1-1.6,1.7c-1,1.2-2.1,2.3-3.1,3.4c-0.9,1.2-1.8,2.4-2.8,3.5c-0.2,0.3-0.5,0.6-0.7,0.9l-0.6,0.9    c-0.4,0.6-0.8,1.2-1.2,1.8c-3.1,4.8-5.7,9.7-7.4,14.4c-1.7,4.7-2.9,9.2-3.6,13.2c-0.7,4-1,7.6-1.1,10.5c-0.1,2.9,0.1,5.2,0.2,6.7    c0.1,0.8,0.1,1.4,0.2,1.7c0.1,0.4,0.1,0.6,0.1,0.6L181.7,124z"/>
	</g>
	<path fill="none" stroke="#AD1225" stroke-width="4" stroke-miterlimit="10" d="M285.5,127.5c0,0-19.8-55,14.7-102.3"/>
	<path fill="none" stroke="#FFFFFF" stroke-width="3" stroke-linecap="round" stroke-miterlimit="10" d="M292.6,120.3   c0,0-26.7-8.1-32.4,17.4"/>
	<path fill="none" stroke="#FFFFFF" stroke-width="3" stroke-linecap="round" stroke-miterlimit="10" d="M193.1,120.3   c0,0-26.7-8.1-32.4,17.4"/>
	<path fill="#AD1225" d="M329.2,113.9c0,0-37.9-58.5-30.1-85.1c0.9-3,3.5-1.8,3.5-1.8s27.7,11.6,31.5,51.7   c4.4-15.2-3-39.6-25.9-51.5c1.1-0.4,14.4-3.2,26,4.6c8.2,5.6,26.6,31.1,15.6,52.7C346.6,90.9,339.9,101.6,329.2,113.9z"/>
</g>
</svg>